<mxfile host="app.diagrams.net" agent="Mozilla/5.0 (Windows NT 10.0; Win64; x64) AppleWebKit/537.36 (KHTML, like Gecko) Chrome/131.0.0.0 Safari/537.36" version="26.0.2">
  <diagram name="Page-1" id="-na0_y07-Yd6Yqe_S_hq">
    <mxGraphModel dx="1050" dy="522" grid="1" gridSize="10" guides="1" tooltips="1" connect="1" arrows="1" fold="1" page="1" pageScale="1" pageWidth="850" pageHeight="1100" math="0" shadow="0">
      <root>
        <mxCell id="0" />
        <mxCell id="1" parent="0" />
        <mxCell id="65qFFjuNm9w9zQKpEK9X-5" value="" style="edgeStyle=orthogonalEdgeStyle;rounded=0;orthogonalLoop=1;jettySize=auto;html=1;" edge="1" parent="1" source="65qFFjuNm9w9zQKpEK9X-1" target="65qFFjuNm9w9zQKpEK9X-2">
          <mxGeometry relative="1" as="geometry" />
        </mxCell>
        <mxCell id="65qFFjuNm9w9zQKpEK9X-1" value="Login" style="rounded=1;whiteSpace=wrap;html=1;" vertex="1" parent="1">
          <mxGeometry x="10" y="210" width="100" height="30" as="geometry" />
        </mxCell>
        <mxCell id="65qFFjuNm9w9zQKpEK9X-6" value="" style="edgeStyle=orthogonalEdgeStyle;rounded=0;orthogonalLoop=1;jettySize=auto;html=1;" edge="1" parent="1" source="65qFFjuNm9w9zQKpEK9X-2" target="65qFFjuNm9w9zQKpEK9X-3">
          <mxGeometry relative="1" as="geometry" />
        </mxCell>
        <mxCell id="65qFFjuNm9w9zQKpEK9X-2" value="Production" style="rounded=1;whiteSpace=wrap;html=1;" vertex="1" parent="1">
          <mxGeometry x="160" y="210" width="100" height="30" as="geometry" />
        </mxCell>
        <mxCell id="65qFFjuNm9w9zQKpEK9X-20" value="" style="edgeStyle=orthogonalEdgeStyle;rounded=0;orthogonalLoop=1;jettySize=auto;html=1;" edge="1" parent="1" source="65qFFjuNm9w9zQKpEK9X-3" target="65qFFjuNm9w9zQKpEK9X-17">
          <mxGeometry relative="1" as="geometry" />
        </mxCell>
        <mxCell id="65qFFjuNm9w9zQKpEK9X-21" style="edgeStyle=orthogonalEdgeStyle;rounded=0;orthogonalLoop=1;jettySize=auto;html=1;entryX=0;entryY=0.5;entryDx=0;entryDy=0;" edge="1" parent="1" source="65qFFjuNm9w9zQKpEK9X-3" target="65qFFjuNm9w9zQKpEK9X-14">
          <mxGeometry relative="1" as="geometry" />
        </mxCell>
        <mxCell id="65qFFjuNm9w9zQKpEK9X-22" style="edgeStyle=orthogonalEdgeStyle;rounded=0;orthogonalLoop=1;jettySize=auto;html=1;entryX=0;entryY=0.5;entryDx=0;entryDy=0;" edge="1" parent="1" source="65qFFjuNm9w9zQKpEK9X-3" target="65qFFjuNm9w9zQKpEK9X-15">
          <mxGeometry relative="1" as="geometry" />
        </mxCell>
        <mxCell id="65qFFjuNm9w9zQKpEK9X-23" style="edgeStyle=orthogonalEdgeStyle;rounded=0;orthogonalLoop=1;jettySize=auto;html=1;entryX=0;entryY=0.5;entryDx=0;entryDy=0;" edge="1" parent="1" source="65qFFjuNm9w9zQKpEK9X-3" target="65qFFjuNm9w9zQKpEK9X-18">
          <mxGeometry relative="1" as="geometry" />
        </mxCell>
        <mxCell id="65qFFjuNm9w9zQKpEK9X-24" style="edgeStyle=orthogonalEdgeStyle;rounded=0;orthogonalLoop=1;jettySize=auto;html=1;entryX=0;entryY=0.5;entryDx=0;entryDy=0;" edge="1" parent="1" source="65qFFjuNm9w9zQKpEK9X-3" target="65qFFjuNm9w9zQKpEK9X-19">
          <mxGeometry relative="1" as="geometry" />
        </mxCell>
        <mxCell id="65qFFjuNm9w9zQKpEK9X-25" style="edgeStyle=orthogonalEdgeStyle;rounded=0;orthogonalLoop=1;jettySize=auto;html=1;entryX=0;entryY=0.5;entryDx=0;entryDy=0;" edge="1" parent="1" source="65qFFjuNm9w9zQKpEK9X-3" target="65qFFjuNm9w9zQKpEK9X-4">
          <mxGeometry relative="1" as="geometry" />
        </mxCell>
        <mxCell id="65qFFjuNm9w9zQKpEK9X-26" style="edgeStyle=orthogonalEdgeStyle;rounded=0;orthogonalLoop=1;jettySize=auto;html=1;entryX=0;entryY=0.5;entryDx=0;entryDy=0;" edge="1" parent="1" source="65qFFjuNm9w9zQKpEK9X-3" target="65qFFjuNm9w9zQKpEK9X-16">
          <mxGeometry relative="1" as="geometry" />
        </mxCell>
        <mxCell id="65qFFjuNm9w9zQKpEK9X-3" value="Quality Menu" style="rounded=1;whiteSpace=wrap;html=1;" vertex="1" parent="1">
          <mxGeometry x="300" y="210" width="100" height="30" as="geometry" />
        </mxCell>
        <mxCell id="65qFFjuNm9w9zQKpEK9X-27" style="edgeStyle=orthogonalEdgeStyle;rounded=0;orthogonalLoop=1;jettySize=auto;html=1;entryX=0;entryY=0.5;entryDx=0;entryDy=0;" edge="1" parent="1" source="65qFFjuNm9w9zQKpEK9X-4" target="65qFFjuNm9w9zQKpEK9X-8">
          <mxGeometry relative="1" as="geometry" />
        </mxCell>
        <mxCell id="65qFFjuNm9w9zQKpEK9X-28" style="edgeStyle=orthogonalEdgeStyle;rounded=0;orthogonalLoop=1;jettySize=auto;html=1;entryX=0;entryY=0.5;entryDx=0;entryDy=0;" edge="1" parent="1" source="65qFFjuNm9w9zQKpEK9X-4" target="65qFFjuNm9w9zQKpEK9X-9">
          <mxGeometry relative="1" as="geometry" />
        </mxCell>
        <mxCell id="65qFFjuNm9w9zQKpEK9X-29" style="edgeStyle=orthogonalEdgeStyle;rounded=0;orthogonalLoop=1;jettySize=auto;html=1;" edge="1" parent="1" source="65qFFjuNm9w9zQKpEK9X-4" target="65qFFjuNm9w9zQKpEK9X-10">
          <mxGeometry relative="1" as="geometry" />
        </mxCell>
        <mxCell id="65qFFjuNm9w9zQKpEK9X-4" value="e-Forms" style="rounded=1;whiteSpace=wrap;html=1;" vertex="1" parent="1">
          <mxGeometry x="460" y="420" width="100" height="30" as="geometry" />
        </mxCell>
        <mxCell id="65qFFjuNm9w9zQKpEK9X-8" value="Generator" style="rounded=1;whiteSpace=wrap;html=1;" vertex="1" parent="1">
          <mxGeometry x="630" y="280" width="100" height="30" as="geometry" />
        </mxCell>
        <mxCell id="65qFFjuNm9w9zQKpEK9X-9" value="Quality Control" style="rounded=1;whiteSpace=wrap;html=1;" vertex="1" parent="1">
          <mxGeometry x="630" y="350" width="100" height="30" as="geometry" />
        </mxCell>
        <mxCell id="65qFFjuNm9w9zQKpEK9X-10" value="Quality Technical" style="rounded=1;whiteSpace=wrap;html=1;" vertex="1" parent="1">
          <mxGeometry x="630" y="420" width="100" height="30" as="geometry" />
        </mxCell>
        <mxCell id="65qFFjuNm9w9zQKpEK9X-14" value="Quality performance" style="rounded=1;whiteSpace=wrap;html=1;" vertex="1" parent="1">
          <mxGeometry x="460" y="10" width="100" height="30" as="geometry" />
        </mxCell>
        <mxCell id="65qFFjuNm9w9zQKpEK9X-15" value="Quality CMM" style="rounded=1;whiteSpace=wrap;html=1;" vertex="1" parent="1">
          <mxGeometry x="460" y="80" width="100" height="30" as="geometry" />
        </mxCell>
        <mxCell id="65qFFjuNm9w9zQKpEK9X-16" value="Quality Spectrometer" style="rounded=1;whiteSpace=wrap;html=1;" vertex="1" parent="1">
          <mxGeometry x="460" y="140" width="100" height="30" as="geometry" />
        </mxCell>
        <mxCell id="65qFFjuNm9w9zQKpEK9X-17" value="Quality Calibration" style="rounded=1;whiteSpace=wrap;html=1;" vertex="1" parent="1">
          <mxGeometry x="460" y="210" width="100" height="30" as="geometry" />
        </mxCell>
        <mxCell id="65qFFjuNm9w9zQKpEK9X-18" value="Quality Testing" style="rounded=1;whiteSpace=wrap;html=1;" vertex="1" parent="1">
          <mxGeometry x="460" y="280" width="100" height="30" as="geometry" />
        </mxCell>
        <mxCell id="65qFFjuNm9w9zQKpEK9X-19" value="Quality Dies Approval" style="rounded=1;whiteSpace=wrap;html=1;" vertex="1" parent="1">
          <mxGeometry x="460" y="350" width="100" height="30" as="geometry" />
        </mxCell>
      </root>
    </mxGraphModel>
  </diagram>
</mxfile>
